<?xml version="1.0" encoding="utf-8"?>
<!-- Generator: Adobe Illustrator 22.0.1, SVG Export Plug-In . SVG Version: 6.00 Build 0)  -->
<svg version="1.1" id="Layer_1" xmlns="http://www.w3.org/2000/svg" xmlns:xlink="http://www.w3.org/1999/xlink" x="0px" y="0px"
	 width="160px" height="160px" viewBox="0 0 160 160" style="enable-background:new 0 0 160 160;" xml:space="preserve">
<style type="text/css">
	.st0{fill:none;stroke:#4EB0B8;stroke-width:1.5345;stroke-linejoin:round;stroke-miterlimit:10;}
	.st1{fill:#FFFFFF;stroke:#4EB0B8;stroke-width:1.5345;stroke-linejoin:round;stroke-miterlimit:10;}
</style>
<g>
	<rect x="130.5" y="116.6" class="st0" width="27.6" height="41.4"/>
	<rect x="40.3" y="47.9" class="st0" width="41.4" height="27.6"/>
	<polygon class="st0" points="155,104.4 139.7,104.4 141.8,89.9 152.9,89.9 	"/>
	<rect x="91.8" y="147.3" class="st0" width="27.6" height="10.7"/>
	<rect x="1.9" y="147.3" class="st0" width="27.6" height="10.7"/>
	<polygon class="st0" points="119.4,147.3 1.9,147.3 1.9,125.8 8,116.6 113.3,116.6 119.4,125.8 	"/>
	<rect x="8" y="102.8" class="st0" width="105.6" height="13.8"/>
	<line class="st0" x1="130.5" y1="137.2" x2="158.1" y2="137.2"/>
	<line class="st0" x1="136.6" y1="144" x2="152" y2="144"/>
	<polygon class="st1" points="96.7,119.7 93,118.2 65.1,118.2 62.4,119.7 63.3,116 63.3,97.3 62.4,93.6 64.8,94.5 94,94.5 
		96.7,93.6 95.8,97 95.8,116.6 	"/>
	<polygon class="st1" points="59.3,119.7 55.6,118.2 27.7,118.2 24.6,119.7 25.5,116 25.5,97.3 24.6,93.6 27.4,94.5 56.2,94.5 
		59.3,93.6 58.4,97 58.4,116.6 	"/>
	<polygon class="st1" points="74.9,122.8 71.9,121.6 49.5,121.6 47,122.8 47.6,120 47.6,104.7 47,101.9 49.2,102.5 72.8,102.5 
		74.9,101.9 74.3,104.4 74.3,120.3 	"/>
	<line class="st0" x1="147.4" y1="104.4" x2="147.4" y2="116.6"/>
	<rect x="37.2" y="44.8" class="st0" width="47.6" height="33.8"/>
	<circle class="st0" cx="69.7" cy="56.8" r="4.6"/>
	<line class="st0" x1="39.9" y1="65.4" x2="81.4" y2="65.4"/>
</g>
</svg>
