<?xml version="1.0" encoding="utf-8"?>
<!-- Generator: Adobe Illustrator 22.0.1, SVG Export Plug-In . SVG Version: 6.00 Build 0)  -->
<svg version="1.1" id="Layer_1" xmlns="http://www.w3.org/2000/svg" xmlns:xlink="http://www.w3.org/1999/xlink" x="0px" y="0px"
	 width="160px" height="160px" viewBox="0 0 160 160" style="enable-background:new 0 0 160 160;" xml:space="preserve">
<style type="text/css">
	.st0{fill:none;stroke:#EB1164;stroke-width:1.3977;stroke-linejoin:round;stroke-miterlimit:10;}
</style>
<g>
	<g>
		<line class="st0" x1="77.8" y1="132.3" x2="77.8" y2="158.5"/>
		<path class="st0" d="M83.6,158.5c0-0.3,2-14.8,1.7-25.2c4.8,0,5.9,0,5.9,0s-4.8-25.2-5.3-27.1c-0.6-2-0.6-5.6-0.6-5.6
			s2.2-1.4,2.2-5.1"/>
		<path class="st0" d="M75.6,64.1c0,0,8.4,6.7,11.7,8.4c1.7-2.5,1.7-10.4-2.8-12.6c-3.9-2.2-7.5-1.1-10.4,0.3
			c-2.8-0.6-6.2,2.2-6.4,4.8c0,2.5,0.9,7.8,1.1,10.1c0.3,2.2,0,10.6,0,10.6"/>
		<line class="st0" x1="87.3" y1="72.5" x2="87.3" y2="85.6"/>
		<path class="st0" d="M71.9,68.8c0,3.9,2.5,10.4,6.4,10.4c3.3,0,5.6-4.4,6.4-8.1"/>
		<path class="st0" d="M78,83.4c3.6,0,13.1,1.7,13.4,7.3c0.3,5.6,0.9,13.1,0.9,13.1v18.7l-2.2,2.8"/>
		<path class="st0" d="M72.7,158.5c0-0.3-2-14.8-1.7-25.2c-4.8,0-5.9,0-5.9,0s4.8-25.2,5.3-27.1c0.6-2,0.6-5.6,0.6-5.6
			s-2.2-1.4-2.2-5.1"/>
		<path class="st0" d="M78,83.4c-3.6,0-13.1,1.7-13.4,7.3c-0.3,5.6-0.9,13.1-0.9,13.1v18.7l2.2,2.8"/>
	</g>
	<g>
		<g>
			<path class="st0" d="M123.6,82.5c0,0,7.8,0.3,10.4,1.1c2.8,0.9,5.6,3.3,6.4,4.8s1.1,16.8,1.1,18.1s-1.7,17.6-1.7,17.6l-5.1,3.6"
				/>
			<path class="st0" d="M135,92.9c0,0-0.9,30.5-0.9,37.2c-0.3,6.7-2.5,28.5-2.5,28.5"/>
			<line class="st0" x1="123.6" y1="121.6" x2="123.6" y2="158.5"/>
			<polyline class="st0" points="123.6,82.5 127,87.3 131.7,83.4 			"/>
			<path class="st0" d="M123.6,60.7c-3.3,0-7.5,1.7-7.5,4.2s0.3,6.2,0.6,7.5c0.3,2,2.8,6.2,7,6.2c4.2,0,6.4-4.2,7-6.2
				c0.3-1.7,0.6-5.1,0.6-7.5C131.1,62.4,126.7,60.7,123.6,60.7z"/>
			<path class="st0" d="M123.6,82.5c0,0-7.8,0.3-10.4,1.1c-2.5,0.9-5.6,3.3-6.4,4.8s-1.1,16.8-1.1,18.1s1.7,17.6,1.7,17.6l5.1,3.6"
				/>
			<path class="st0" d="M111.8,92.9c0,0,0.9,30.5,0.9,37.2c0.3,6.7,2.5,28.5,2.5,28.5"/>
			<polyline class="st0" points="123.6,82.5 120,87.3 115.2,83.4 			"/>
		</g>
		<path class="st0" d="M131.1,64.9c-1.1,1.1-9.5,4.8-17,3.1"/>
	</g>
	<g>
		<line class="st0" x1="32.5" y1="132.3" x2="32.5" y2="158.5"/>
		<path class="st0" d="M38,158.5c0-0.3,2-14.8,1.7-25.2c4.8,0,5.9,0,5.9,0s-4.8-25.2-5.3-27.1c-0.6-2-0.6-5.6-0.6-5.6
			s2.2-1.4,2.2-5.1"/>
		<path class="st0" d="M26.3,68.8c0,3.9,2.5,10.4,6.4,10.4c3.3,0,5.6-4.4,6.4-8.1"/>
		<path class="st0" d="M32.7,83.4c3.6,0,13.1,1.7,13.4,7.3c0.3,5.6,0.9,13.1,0.9,13.1v18.7l-2.2,2.8"/>
		<path class="st0" d="M27.4,158.5c0-0.3-2-14.8-1.7-25.2c-4.8,0-5.9,0-5.9,0s4.8-25.2,5.3-27.1c0.6-2,0.6-5.6,0.6-5.6
			s-2.2-1.4-2.2-5.1"/>
		<path class="st0" d="M32.7,83.4c-3.6,0-13.1,1.7-13.4,7.3c-0.3,5.5-0.9,13.1-0.9,13.1v18.7l2.2,2.8"/>
		<path class="st0" d="M32.7,78.9c-2,0-12-1.4-12-5.3c0-2.2,2.5-0.3,2.5-5.9S27.7,58,33,58s9.7,4.2,9.7,9.7s2.5,3.6,2.5,5.9
			C45.1,77.8,35,78.9,32.7,78.9L32.7,78.9z"/>
		<path class="st0" d="M36.4,63c-1.1,1.4-6.4,6.2-12,6.2"/>
	</g>
</g>
</svg>
