<?xml version="1.0" encoding="utf-8"?>
<!-- Generator: Adobe Illustrator 22.0.1, SVG Export Plug-In . SVG Version: 6.00 Build 0)  -->
<svg version="1.1" id="Layer_1" xmlns="http://www.w3.org/2000/svg" xmlns:xlink="http://www.w3.org/1999/xlink" x="0px" y="0px"
	 width="160px" height="160px" viewBox="0 0 160 160" style="enable-background:new 0 0 160 160;" xml:space="preserve">
<style type="text/css">
	.st0{fill:none;stroke:#EE9A33;stroke-width:1.3688;stroke-linejoin:round;stroke-miterlimit:10;}
</style>
<g>
	<rect x="43.2" y="107.8" class="st0" width="49.6" height="49.6"/>
	<rect x="109.2" y="59.1" class="st0" width="49.6" height="98.3"/>
	<line class="st0" x1="46.8" y1="115.2" x2="57.8" y2="115.2"/>
	<line class="st0" x1="116.6" y1="113.8" x2="116.6" y2="95.5"/>
	<line class="st0" x1="116.6" y1="88.1" x2="116.6" y2="77.1"/>
	<polygon class="st0" points="29.8,92.8 1.6,92.8 5.5,66.5 25.7,66.5 	"/>
	<line class="st0" x1="15.6" y1="92.8" x2="15.6" y2="157.4"/>
	<line class="st0" x1="1.6" y1="157.4" x2="29.8" y2="157.4"/>
	<circle class="st0" cx="67.9" cy="135.5" r="14.2"/>
	<line class="st0" x1="109.2" y1="91.9" x2="158.8" y2="91.9"/>
	<g>
		<path class="st0" d="M56.1,64c6.6-6.6,17-6.6,23.3,0"/>
		<path class="st0" d="M59.9,67.6c4.4-4.4,11.5-4.4,15.9,0"/>
		<path class="st0" d="M63.5,71.4c2.5-2.5,6.3-2.5,8.5,0"/>
	</g>
</g>
</svg>
